<svg xmlns="http://www.w3.org/2000/svg" role="img" viewBox="0 0 24 24" width="32" height="32" fill="currentColor" aria-hidden="true">
  <title>GitHub</title>
  <path d="M12 .297c-6.63 0-12 5.373-12 12 0 5.303 3.438 9.8 8.205 11.387.6.113.82-.258.82-.577 0-.285-.01-1.04-.015-2.04-3.338.724-4.042-1.61-4.042-1.61-.546-1.387-1.333-1.757-1.333-1.757-1.09-.745.083-.73.083-.73 1.205.085 1.84 1.236 1.84 1.236 1.07 1.835 2.809 1.305 3.495.998.108-.776.418-1.305.762-1.605-2.665-.3-5.466-1.335-5.466-5.93 0-1.31.468-2.38 1.235-3.22-.135-.303-.54-1.523.105-3.176 0 0 1.005-.322 3.3 1.23a11.5 11.5 0 013.003-.403c1.02.005 2.045.138 3.003.403 2.28-1.552 3.285-1.23 3.285-1.23.645 1.653.24 2.873.12 3.176.765.84 1.23 1.91 1.23 3.22 0 4.61-2.805 5.625-5.475 5.92.429.37.81 1.096.81 2.21 0 1.596-.015 2.884-.015 3.276 0 .315.21.694.825.577C20.565 22.092 24 17.592 24 12.297 24 5.67 18.627.297 12 .297z"/>
</svg>
